<svg width="215" height="48" viewBox="0 0 215 48" fill="none" xmlns="http://www.w3.org/2000/svg">
<path d="M62.5554 43.5497C62.3031 43.5457 62.0549 43.6164 61.8427 43.7538C61.6305 43.8907 61.4645 44.0882 61.3647 44.3201C61.2654 44.5523 61.2372 44.8091 61.2842 45.0573C61.3312 45.3055 61.451 45.534 61.6285 45.7135C61.8059 45.8934 62.0328 46.0165 62.2802 46.0668C62.528 46.1167 62.7848 46.0922 63.0182 45.9957C63.2517 45.8996 63.4513 45.7356 63.5911 45.5255C63.7313 45.3153 63.8054 45.0679 63.8045 44.8156C63.8054 44.6476 63.7722 44.4812 63.708 44.3262C63.6438 44.1712 63.549 44.031 63.4296 43.9128C63.3102 43.7951 63.1683 43.7023 63.0125 43.6397C62.8567 43.5775 62.6899 43.5469 62.5223 43.5497H62.5554ZM62.5554 45.8914C62.2843 45.8718 62.0304 45.7503 61.8452 45.5512C61.66 45.3521 61.5569 45.0904 61.5569 44.8181C61.5569 44.5462 61.66 44.2845 61.8452 44.0854C62.0304 43.8863 62.2843 43.7648 62.5554 43.7452C62.8269 43.7648 63.0808 43.8863 63.266 44.0854C63.4513 44.2845 63.5543 44.5462 63.5543 44.8181C63.5543 45.0904 63.4513 45.3521 63.266 45.5512C63.0808 45.7503 62.8269 45.8718 62.5554 45.8914Z" fill="#22201C"/>
<path d="M62.7504 44.8602C62.8297 44.8434 62.9005 44.7997 62.9516 44.7367C63.0023 44.6737 63.0297 44.5952 63.0293 44.5143C63.0334 44.4591 63.024 44.4039 63.0019 44.3532C62.9794 44.3025 62.9446 44.2583 62.9009 44.2244C62.768 44.1459 62.6147 44.1087 62.4605 44.1185C62.326 44.1193 62.1919 44.1303 62.059 44.152V45.5627H62.288V44.9661H62.4438C62.4806 44.9604 62.5178 44.9628 62.5533 44.9726C62.5893 44.9829 62.6224 45 62.6506 45.0237C62.6793 45.0475 62.7022 45.0769 62.7185 45.1104C62.7349 45.1435 62.7439 45.1799 62.7451 45.2167C62.7549 45.3406 62.7868 45.4612 62.8396 45.5737H63.0796C63.0321 45.4637 63.0019 45.3472 62.9904 45.2282C62.9622 44.9939 62.8731 44.8823 62.7504 44.8602ZM62.4495 44.7706H62.288V44.2914H62.4495C62.7005 44.2914 62.7897 44.4141 62.7897 44.5421C62.7897 44.6705 62.6335 44.7706 62.4495 44.7706Z" fill="#22201C"/>
<path d="M28.2843 16.0918V27.1253H34.2163L34.8406 23.7798H37.5057C36.5301 28.8868 31.5013 32.3827 25.1232 32.3827C24.6881 32.3827 24.2478 32.3827 23.8074 32.3324C20.5212 32.146 17.354 31.0367 14.6693 29.1321C13.4431 28.2706 12.4426 27.1257 11.7528 25.7952C11.0626 24.4647 10.7036 22.9874 10.7057 21.4885C10.7146 19.8795 11.0675 18.291 11.7405 16.8294C12.4136 15.3679 13.3912 14.0671 14.608 13.0143C17.1042 10.8559 20.2641 9.61818 23.5621 9.50741C23.7739 9.50741 23.9914 9.50741 24.209 9.50741C28.3828 9.57827 32.4107 11.0533 35.6437 13.6944C35.8052 13.8282 35.8445 13.8561 35.8833 13.884C35.963 13.9407 36.0395 14.0021 36.1119 14.068L36.201 14.146H43.0085V2.23735H36.1119V5.64378C31.9748 3.16576 27.2359 1.87345 22.4135 1.90841H22.3187C15.9827 1.94173 9.91897 4.48832 5.45931 8.98895C1.89101 12.6295 -0.0544478 17.0897 0.00115999 21.5498C0.0678075 26.3448 2.37634 30.8105 6.50727 34.1221C10.7081 37.3894 15.8821 39.1562 21.2037 39.1399C21.8673 39.1399 22.5419 39.1399 23.2051 39.0618C28.5406 38.6267 33.2407 37.389 36.5858 35.6218V37.0938H43.9117V23.8359H46.4426V39.1902H42.6237V46.081H59.6671V39.1902H55.8649V23.8301H64.4956L65.0974 27.1752H71.052V16.0918H28.2843Z" fill="#22201C"/>
<path d="M83.0519 48L83.0519 0" stroke="#22201C"/>
<g clip-path="url(#clip0_34_2)">
<path d="M151.641 47.5785V26.5554H157.787L162.419 45.4156H162.902L167.535 26.5554H173.681V47.5785H170.501V28.8369H170.018L165.415 47.5785H159.904L155.301 28.8369H154.818V47.5785H151.638H151.641Z" fill="#22201C"/>
<path d="M139.317 48C137.641 48 136.199 47.6997 134.988 47.099C133.798 46.4984 132.868 45.6369 132.202 44.5172C131.556 43.3765 131.232 41.9934 131.232 40.3732V26.5581H134.534V40.4628C134.534 41.9434 134.948 43.0867 135.774 43.8876C136.603 44.6885 137.782 45.0889 139.317 45.0889C140.852 45.0889 142.031 44.6885 142.86 43.8876C143.689 43.0867 144.101 41.946 144.101 40.4628V26.5581H147.37V40.3732C147.37 41.996 147.046 43.3765 146.401 44.5172C145.755 45.6395 144.826 46.4984 143.614 47.099C142.403 47.6997 140.969 48 139.314 48H139.317Z" fill="#22201C"/>
<path d="M114.473 47.5785V26.5554H127.824V29.4981H117.742V35.5337H126.977V38.4764H117.742V44.6331H127.976V47.5758H114.473V47.5785Z" fill="#22201C"/>
<path d="M103.227 48C101.634 48 100.221 47.7207 98.9882 47.1596C97.7558 46.5985 96.789 45.7791 96.0825 44.6964C95.3972 43.5952 95.0519 42.2648 95.0519 40.7025V39.9517H98.2923V40.7025C98.2923 42.1831 98.7358 43.2948 99.6256 44.0351C100.534 44.7754 101.734 45.1469 103.23 45.1469C104.725 45.1469 105.883 44.836 106.651 44.2169C107.418 43.5767 107.801 42.7548 107.801 41.7537C107.801 41.0924 107.62 40.5524 107.256 40.1308C106.892 39.7093 106.377 39.38 105.713 39.1403C105.047 38.8795 104.25 38.6397 103.32 38.4184L102.199 38.1471C100.847 37.8257 99.6654 37.4358 98.6562 36.9748C97.6681 36.4953 96.9005 35.863 96.356 35.0832C95.8116 34.3034 95.538 33.3023 95.538 32.0799C95.538 30.8575 95.8408 29.7774 96.4463 28.8975C97.0732 28.0176 97.9311 27.3352 99.02 26.8558C100.109 26.3763 101.392 26.1339 102.866 26.1339C104.34 26.1339 105.652 26.3842 106.802 26.8847C107.973 27.3853 108.892 28.1256 109.556 29.1082C110.22 30.0909 110.555 31.3212 110.555 32.8018V33.8819H107.315V32.8018C107.315 31.9008 107.124 31.171 106.738 30.6099C106.375 30.0487 105.859 29.6378 105.195 29.3796C104.529 29.1188 103.753 28.9897 102.863 28.9897C101.572 28.9897 100.563 29.261 99.8354 29.8011C99.1289 30.3227 98.7757 31.0525 98.7757 31.993C98.7757 32.6332 98.9271 33.1653 99.2298 33.5842C99.5539 33.9846 100.016 34.3139 100.622 34.5748C101.227 34.8356 101.984 35.0648 102.892 35.265L104.013 35.5363C105.386 35.8367 106.598 36.2266 107.647 36.7087C108.696 37.1697 109.525 37.7993 110.13 38.6002C110.736 39.4011 111.038 40.4312 111.038 41.6931C111.038 42.955 110.714 44.0562 110.069 44.9967C109.442 45.9372 108.544 46.6775 107.373 47.2202C106.202 47.7418 104.821 48 103.224 48H103.227Z" fill="#22201C"/>
<path d="M153.62 23.6048L160.419 0H166.878L173.643 23.6048H169.869L168.305 18.0408H158.99L157.426 23.6048H153.617H153.62ZM159.909 14.6687H167.388L163.92 2.26037H163.375L159.906 14.6687H159.909Z" fill="#22201C"/>
<path d="M144.103 23.6048V3.30362H136.892V0H153.62V3.30362H147.373V23.6048H144.101H144.103Z" fill="#22201C"/>
<path d="M116.868 23.6048L123.668 0H130.127L136.892 23.6048H133.118L131.554 18.0408H122.239L120.675 23.6048H116.866H116.868ZM123.158 14.6687H130.637L127.168 2.26037H126.624L123.155 14.6687H123.158Z" fill="#22201C"/>
<path d="M95.4078 23.6048V20.3671H98.603V3.23776H95.4078V0H104.927C108.101 0 110.526 0.798244 112.202 2.39473C113.902 3.99122 114.752 6.39649 114.752 9.61054V14.0285C114.752 17.2426 113.902 19.6479 112.202 21.2443C110.526 22.8171 108.098 23.6048 104.927 23.6048H95.4078ZM102.308 20.3012H104.959C107.023 20.3012 108.552 19.7849 109.548 18.7495C110.544 17.7142 111.044 16.1756 111.044 14.1287V9.47618C111.044 7.40812 110.544 5.86696 109.548 4.85532C108.552 3.84369 107.023 3.33787 104.959 3.33787H102.308V20.2986V20.3012Z" fill="#22201C"/>
<mask id="mask0_34_2" style="mask-type:luminance" maskUnits="userSpaceOnUse" x="182" y="0" width="33" height="48">
<path d="M214.052 0.158066H182.18V47.5785H214.052V0.158066Z" fill="white"/>
</mask>
<g mask="url(#mask0_34_2)">
<path d="M198.116 31.7717H182.18V47.5785H198.116V31.7717Z" fill="#22201C"/>
<path d="M214.052 15.9649H198.116V31.7717H214.052V15.9649Z" fill="#22201C"/>
<path d="M198.116 0.158066H182.18V15.9649H198.116V0.158066Z" fill="#22201C"/>
</g>
</g>
<defs>
<clipPath id="clip0_34_2">
<rect width="119" height="48" fill="white" transform="translate(95.0519)"/>
</clipPath>
</defs>
</svg>
